<svg width="26" height="26" viewBox="0 0 26 26" fill="none" xmlns="http://www.w3.org/2000/svg">
<path d="M19.5 6.50005C19.2969 6.29695 19.0214 6.18286 18.7341 6.18286C18.4469 6.18286 18.1714 6.29695 17.9682 6.50005L13 11.4682L8.03188 6.50005C7.82873 6.29695 7.55322 6.18286 7.26596 6.18286C6.9787 6.18286 6.7032 6.29695 6.50005 6.50005C6.29695 6.7032 6.18286 6.9787 6.18286 7.26596C6.18286 7.55322 6.29695 7.82873 6.50005 8.03188L11.4682 13L6.50005 17.9682C6.29695 18.1714 6.18286 18.4469 6.18286 18.7341C6.18286 19.0214 6.29695 19.2969 6.50005 19.5C6.7032 19.7031 6.9787 19.8172 7.26596 19.8172C7.55322 19.8172 7.82873 19.7031 8.03188 19.5L13 14.5319L17.9682 19.5C18.1714 19.7031 18.4469 19.8172 18.7341 19.8172C19.0214 19.8172 19.2969 19.7031 19.5 19.5C19.7031 19.2969 19.8172 19.0214 19.8172 18.7341C19.8172 18.4469 19.7031 18.1714 19.5 17.9682L14.5319 13L19.5 8.03188C19.7031 7.82873 19.8172 7.55322 19.8172 7.26596C19.8172 6.9787 19.7031 6.7032 19.5 6.50005Z" fill="#7A7B7C"/>
</svg>
