<svg width="30" height="28" viewBox="0 0 30 28" fill="none" xmlns="http://www.w3.org/2000/svg">
<path d="M18.0942 22.8823L18.8645 22.112L16.0666 19.2944V15.7547H15.0484V19.7036L18.0942 22.8823ZM15.5011 26.4948C14.5451 26.4948 13.6413 26.3102 12.7894 25.9412C11.9375 25.5721 11.195 25.0704 10.5617 24.436C9.92851 23.8016 9.42744 23.0592 9.05851 22.209C8.68959 21.3587 8.50513 20.4561 8.50513 19.5011C8.50513 18.5452 8.68967 17.6413 9.05874 16.7895C9.42782 15.9376 9.92956 15.195 10.564 14.5618C11.1983 13.9286 11.9407 13.4275 12.791 13.0586C13.6412 12.6897 14.5438 12.5052 15.4988 12.5052C16.4547 12.5052 17.3586 12.6897 18.2104 13.0588C19.0623 13.4279 19.8049 13.9296 20.4381 14.564C21.0713 15.1984 21.5724 15.9408 21.9413 16.791C22.3102 17.6413 22.4947 18.5439 22.4947 19.4989C22.4947 20.4548 22.3102 21.3586 21.9411 22.2105C21.572 23.0624 21.0703 23.805 20.4359 24.4382C19.8015 25.0714 19.0592 25.5725 18.2089 25.9414C17.3586 26.3103 16.456 26.4948 15.5011 26.4948ZM15.4955 25.4766C17.1335 25.4766 18.5399 24.8907 19.7145 23.719C20.8892 22.5473 21.4765 21.1424 21.4765 19.5044C21.4765 17.8664 20.8893 16.4601 19.7149 15.2854C18.5404 14.1108 17.1354 13.5234 15.4999 13.5234C13.8589 13.5234 12.4526 14.1106 11.2809 15.2851C10.1092 16.4595 9.52336 17.8645 9.52336 19.5C9.52336 21.141 10.1092 22.5473 11.2809 23.719C12.4526 24.8907 13.8575 25.4766 15.4955 25.4766Z" fill="#AFB2B7"/>
<path d="M1 10C1 8.28709 1 6.5267 1 4.9992C1 2.79006 2.79086 1 5 1H25C27.2091 1 29 2.79086 29 5V10M1 10C1 11.9188 1 14.0637 1 16.0003C1 18.2094 2.79086 20 5 20H8.5M1 10H29M29 10V16C29 18.2091 27.2091 20 25 20H21.5M16.0145 5.5H26.1594" stroke="#AFB2B7" stroke-width="1.5"/>
<rect x="5" y="3.00002" width="5" height="5" rx="2.5" fill="#AFB2B7"/>
</svg>
