<svg width="34" height="40" viewBox="0 0 34 40" fill="none" xmlns="http://www.w3.org/2000/svg">
<path fill-rule="evenodd" clip-rule="evenodd" d="M14.9998 11C12.7925 11 10.9998 12.7927 10.9998 15C10.9998 17.2073 12.7925 19 14.9998 19C17.207 19 18.9998 17.2073 18.9998 15C18.9998 12.7927 17.207 11 14.9998 11Z" fill="#2D8EF3"/>
<path fill-rule="evenodd" clip-rule="evenodd" d="M21.4 28.0427H9.39967C9.24077 28.0427 9.08769 27.9682 8.97559 27.835C8.86269 27.7022 8.7998 27.5213 8.7998 27.3335V25.9154C8.7998 23.174 10.6801 20.9517 12.9997 20.9517H17.7998C20.1193 20.9517 21.9997 23.1739 21.9997 25.9154V27.3335C21.9997 27.5213 21.9368 27.7022 21.8239 27.835C21.7118 27.9682 21.5587 28.0427 21.3998 28.0427H21.4Z" fill="#2D8EF3"/>
<path fill-rule="evenodd" clip-rule="evenodd" d="M23.2567 28H29.1745C29.6301 28 29.9998 27.6864 29.9998 27.2999V24.4999C29.9998 22.5672 28.1523 21 25.8741 21H22.5734C22.0165 21 21.4852 21.0937 20.9998 21.2632C22.4746 22.4154 23.3987 24.0661 23.3987 25.9V27.2999C23.3987 27.5406 23.3498 27.7773 23.2567 28Z" fill="#61D7C7"/>
<rect x="21" y="12" width="6" height="6.77576" rx="3" fill="#89E1D4"/>
</svg>
