<svg width="26" height="26" viewBox="0 0 26 26" fill="none" xmlns="http://www.w3.org/2000/svg">
<g clip-path="url(#clip0_72_614)">
<path d="M8.125 14.0833C7.16082 14.0833 6.21828 13.7974 5.41659 13.2618C4.61491 12.7261 3.99006 11.9647 3.62109 11.0739C3.25211 10.1831 3.15557 9.20293 3.34367 8.25727C3.53177 7.31161 3.99607 6.44297 4.67785 5.76119C5.35964 5.07941 6.22828 4.61511 7.17393 4.42701C8.11959 4.2389 9.09979 4.33545 9.99058 4.70442C10.8814 5.0734 11.6427 5.69824 12.1784 6.49993C12.7141 7.30162 13 8.24415 13 9.20834C12.9986 10.5008 12.4845 11.74 11.5706 12.6539C10.6566 13.5678 9.41749 14.0819 8.125 14.0833ZM8.125 6.5C7.58934 6.5 7.06571 6.65884 6.62033 6.95644C6.17495 7.25403 5.82781 7.67702 5.62283 8.1719C5.41784 8.66679 5.3642 9.21134 5.46871 9.73671C5.57321 10.2621 5.83115 10.7446 6.20992 11.1234C6.58869 11.5022 7.07127 11.7601 7.59663 11.8646C8.122 11.9691 8.66655 11.9155 9.16144 11.7105C9.65632 11.5055 10.0793 11.1584 10.3769 10.713C10.6745 10.2676 10.8333 9.74399 10.8333 9.20834C10.8333 8.49004 10.548 7.80117 10.0401 7.29325C9.53217 6.78534 8.8433 6.5 8.125 6.5ZM16.25 24.9167V24.375C16.25 22.2201 15.394 20.1535 13.8702 18.6298C12.3465 17.106 10.2799 16.25 8.125 16.25C5.97012 16.25 3.90349 17.106 2.37976 18.6298C0.856024 20.1535 0 22.2201 0 24.375L0 24.9167C0 25.204 0.114137 25.4795 0.317301 25.6827C0.520465 25.8859 0.796016 26 1.08333 26C1.37065 26 1.6462 25.8859 1.84937 25.6827C2.05253 25.4795 2.16667 25.204 2.16667 24.9167V24.375C2.16667 22.7948 2.79442 21.2792 3.91182 20.1618C5.02923 19.0444 6.54475 18.4167 8.125 18.4167C9.70525 18.4167 11.2208 19.0444 12.3382 20.1618C13.4556 21.2792 14.0833 22.7948 14.0833 24.375V24.9167C14.0833 25.204 14.1975 25.4795 14.4006 25.6827C14.6038 25.8859 14.8793 26 15.1667 26C15.454 26 15.7295 25.8859 15.9327 25.6827C16.1359 25.4795 16.25 25.204 16.25 24.9167ZM26 19.5C26 18.0361 25.5762 16.6034 24.7799 15.3751C23.9835 14.1467 22.8486 13.1751 21.5122 12.5775C20.1758 11.9799 18.695 11.7819 17.2486 12.0074C15.8021 12.2329 14.4518 12.8722 13.3608 13.8483C13.2532 13.9427 13.1655 14.0575 13.1027 14.1861C13.0398 14.3147 13.003 14.4544 12.9945 14.5973C12.9859 14.7401 13.0057 14.8833 13.0528 15.0184C13.0999 15.1536 13.1733 15.278 13.2687 15.3847C13.3642 15.4913 13.4798 15.5779 13.609 15.6396C13.7381 15.7013 13.8782 15.7368 14.0211 15.744C14.164 15.7512 14.307 15.7301 14.4417 15.6817C14.5764 15.6334 14.7002 15.5589 14.8059 15.4624C15.5853 14.7654 16.5498 14.3089 17.5829 14.148C18.6161 13.987 19.6737 14.1286 20.6282 14.5555C21.5827 14.9824 22.3932 15.6764 22.9619 16.5538C23.5307 17.4312 23.8333 18.4544 23.8333 19.5C23.8333 19.7873 23.9475 20.0629 24.1506 20.266C24.3538 20.4692 24.6294 20.5833 24.9167 20.5833C25.204 20.5833 25.4795 20.4692 25.6827 20.266C25.8859 20.0629 26 19.7873 26 19.5ZM18.9583 9.75C17.9942 9.75 17.0516 9.46409 16.2499 8.92842C15.4482 8.39275 14.8234 7.63137 14.4544 6.74058C14.0854 5.84979 13.9889 4.86959 14.177 3.92394C14.3651 2.97828 14.8294 2.10964 15.5112 1.42786C16.193 0.746076 17.0616 0.281777 18.0073 0.0936739C18.9529 -0.094429 19.9331 0.00211227 20.8239 0.371089C21.7147 0.740067 22.4761 1.36491 23.0117 2.1666C23.5474 2.96829 23.8333 3.91082 23.8333 4.875C23.8319 6.16749 23.3178 7.40663 22.4039 8.32056C21.49 9.23449 20.2508 9.74857 18.9583 9.75ZM18.9583 2.16667C18.4227 2.16667 17.899 2.32551 17.4537 2.62311C17.0083 2.9207 16.6611 3.34368 16.4562 3.83857C16.2512 4.33345 16.1975 4.87801 16.302 5.40337C16.4065 5.92874 16.6645 6.41132 17.0433 6.79008C17.422 7.16885 17.9046 7.42679 18.43 7.5313C18.9553 7.6358 19.4999 7.58216 19.9948 7.37718C20.4897 7.17219 20.9126 6.82505 21.2102 6.37967C21.5078 5.93429 21.6667 5.41066 21.6667 4.875C21.6667 4.15671 21.3813 3.46783 20.8734 2.95992C20.3655 2.45201 19.6766 2.16667 18.9583 2.16667Z" fill="#AFB2B7"/>
<path d="M0.541748 26H15.1667" stroke="#AFB2B7" stroke-width="3"/>
<path d="M13.9089 15.3688C12.4592 14.625 11.5545 18.7562 11.5545 18.7562" stroke="#AFB2B7" stroke-width="2"/>
<path d="M25.9999 20.0417H14.0833" stroke="#AFB2B7" stroke-width="2"/>
</g>
<defs>
<clipPath id="clip0_72_614">
<rect width="26" height="26" fill="white"/>
</clipPath>
</defs>
</svg>
