<svg width="24" height="24" viewBox="0 0 70 70" fill="none" xmlns="http://www.w3.org/2000/svg">
<path d="M27 0H55C63.2843 0 70 6.71573 70 15V55C70 63.2843 63.2843 70 55 70H27C18.7157 70 12 63.2843 12 55V47C12 45.3431 13.3431 44 15 44C16.6569 44 18 45.3431 18 47V55C18 59.9706 22.0294 64 27 64H55C59.9706 64 64 59.9706 64 55V15C64 10.0294 59.9706 6 55 6H27C22.0294 6 18 10.0294 18 15V23C18 24.6569 16.6569 26 15 26C13.3431 26 12 24.6569 12 23V15C12 6.71573 18.7157 0 27 0Z" fill="#cfcdcd"/>
<path d="M37.6066 33.364L29.1213 24.8787C27.9497 23.7071 26.0503 23.7071 24.8787 24.8787C23.7071 26.0503 23.7071 27.9497 24.8787 29.1213L28.2574 32.5H3C1.34315 32.5 0 33.8431 0 35.5C0 37.1569 1.34315 38.5 3 38.5H28.2574L24.8787 41.8787C23.7071 43.0503 23.7071 44.9497 24.8787 46.1213C26.0503 47.2929 27.9497 47.2929 29.1213 46.1213L37.6066 37.636C38.1961 37.0465 38.489 36.2727 38.4852 35.5C38.489 34.7273 38.1961 33.9535 37.6066 33.364Z" fill="#cfcdcd"/>
</svg>
