<svg width="45" height="45" viewBox="0 0 45 45" fill="none" xmlns="http://www.w3.org/2000/svg">
<rect width="45" height="45" rx="22.5" fill="white" fill-opacity="0.05"/>
<g clip-path="url(#clip0_72_641)">
<path d="M14.6667 27.5833H16.75C17.6705 27.5833 18.4167 28.3295 18.4167 29.25V31.3333C18.4167 32.2538 17.6705 33 16.75 33H14.6667C13.7462 33 13 32.2538 13 31.3333V29.25C13 28.3295 13.7462 27.5833 14.6667 27.5833Z" fill="#E4E6EB"/>
<path d="M32.2649 27.8683C31.99 27.6821 31.6654 27.5828 31.3333 27.5833H29.2499C28.3295 27.5833 27.5833 28.3295 27.5833 29.25V31.3333C27.5833 32.2538 28.3295 33 29.2499 33H31.3333C32.2538 33 32.9999 32.2538 32.9999 31.3333V29.25C32.9999 28.6959 32.7244 28.1781 32.2649 27.8683Z" fill="#E4E6EB"/>
<path d="M14.6667 20.2917H16.75C17.6705 20.2917 18.4167 21.0379 18.4167 21.9584V24.0417C18.4167 24.9622 17.6705 25.7084 16.75 25.7084H14.6667C13.7462 25.7083 13 24.9622 13 24.0417V21.9584C13 21.0379 13.7462 20.2917 14.6667 20.2917Z" fill="#E4E6EB"/>
<path d="M32.2649 20.5767C31.99 20.3904 31.6654 20.2911 31.3333 20.2917H29.2499C28.3295 20.2917 27.5833 21.0379 27.5833 21.9584V24.0417C27.5833 24.9621 28.3295 25.7084 29.2499 25.7084H31.3333C32.2537 25.7084 32.9999 24.9621 32.9999 24.0417V21.9584C32.9999 21.4042 32.7244 20.8864 32.2649 20.5767Z" fill="#E4E6EB"/>
<path d="M14.6667 13H16.75C17.6705 13 18.4167 13.7462 18.4167 14.6667V16.75C18.4167 17.6705 17.6705 18.4167 16.75 18.4167H14.6667C13.7462 18.4167 13 17.6705 13 16.75V14.6667C13 13.7462 13.7462 13 14.6667 13Z" fill="#E4E6EB"/>
<path d="M24.9734 27.8683C24.6985 27.6821 24.3739 27.5828 24.0417 27.5833H21.9584C21.038 27.5833 20.2917 28.3295 20.2917 29.25V31.3333C20.2917 32.2538 21.038 33 21.9584 33H24.0417C24.9622 33 25.7084 32.2538 25.7084 31.3333V29.25C25.7084 28.6959 25.4329 28.1781 24.9734 27.8683Z" fill="#E4E6EB"/>
<path d="M24.9734 20.5767C24.6985 20.3904 24.3739 20.2911 24.0417 20.2917H21.9584C21.038 20.2917 20.2917 21.0379 20.2917 21.9584V24.0417C20.2917 24.9621 21.038 25.7084 21.9584 25.7084H24.0417C24.9622 25.7084 25.7084 24.9621 25.7084 24.0417V21.9584C25.7084 21.4042 25.4329 20.8864 24.9734 20.5767Z" fill="#E4E6EB"/>
<path d="M24.9734 13.285C24.6985 13.0988 24.3739 12.9995 24.0417 13H21.9584C21.038 13 20.2917 13.7462 20.2917 14.6667V16.75C20.2917 17.6705 21.038 18.4167 21.9584 18.4167H24.0417C24.9622 18.4167 25.7084 17.6705 25.7084 16.75V14.6667C25.7084 14.1126 25.4329 13.5947 24.9734 13.285Z" fill="#E4E6EB"/>
<path d="M32.7149 13.735C32.4052 13.2755 31.8874 13.0001 31.3333 13H29.2499C28.3295 13 27.5833 13.7462 27.5833 14.6667V16.75C27.5833 17.6705 28.3295 18.4167 29.2499 18.4167H31.3333C32.2538 18.4167 32.9999 17.6705 32.9999 16.75V14.6667C33.0005 14.3346 32.9012 14.01 32.7149 13.735Z" fill="#E4E6EB"/>
</g>
<defs>
<clipPath id="clip0_72_641">
<rect width="20" height="20" fill="white" transform="translate(13 13)"/>
</clipPath>
</defs>
</svg>
