<svg width="49" height="49" viewBox="0 0 49 49" fill="none" xmlns="http://www.w3.org/2000/svg">
<rect width="49" height="49" rx="24.5" fill="#4B4C4F"/>
<path d="M15.3345 17.15V30.15C15.3345 30.6673 15.5399 31.1632 15.9055 31.5289C16.2713 31.8946 16.7672 32.1 17.2845 32.1H30.2845C30.8017 32.1 31.2976 31.8946 31.6634 31.5289C32.029 31.1632 32.2345 30.6673 32.2345 30.15V20.4C32.2345 20.1677 32.1106 19.9531 31.9095 19.8371C31.7084 19.721 31.4606 19.721 31.2595 19.8371C31.0584 19.9531 30.9345 20.1677 30.9345 20.4V30.15C30.9345 30.3224 30.866 30.4878 30.7441 30.6097C30.6222 30.7315 30.4568 30.8 30.2845 30.8H17.2845C17.1121 30.8 16.9467 30.7315 16.8248 30.6097C16.703 30.4878 16.6345 30.3224 16.6345 30.15V17.15C16.6345 16.9776 16.703 16.8122 16.8248 16.6904C16.9467 16.5685 17.1121 16.5 17.2845 16.5H27.0345C27.2668 16.5 27.4813 16.3761 27.5974 16.175C27.7135 15.9739 27.7135 15.7261 27.5974 15.525C27.4813 15.3239 27.2668 15.2 27.0345 15.2H17.2845C16.7672 15.2 16.2713 15.4055 15.9055 15.7711C15.5399 16.1369 15.3345 16.6328 15.3345 17.15Z" fill="#E4E6EA"/>
<path d="M29.0429 14.9935L21.5223 22.5191C21.3742 22.6687 21.2915 22.8709 21.2927 23.0816V25.458C21.2927 25.6681 21.3761 25.8697 21.5246 26.0182C21.673 26.1667 21.8745 26.2502 22.0844 26.2502H24.4593C24.6698 26.2514 24.8719 26.1687 25.0214 26.0205L32.542 18.495C33.1322 17.8646 33.3506 16.9715 33.118 16.1395C32.8857 15.3077 32.2359 14.6576 31.4045 14.4249C30.5733 14.1923 29.6808 14.4109 29.0508 15.0015L29.0429 14.9935ZM24.1347 24.6661H22.876V23.4066L28.8133 17.4653L30.072 18.7248L24.1347 24.6661ZM31.4259 17.37L31.1964 17.5997L29.9298 16.3482L30.1593 16.1185C30.3841 15.8934 30.7119 15.8055 31.019 15.8879C31.3261 15.9703 31.5661 16.2104 31.6484 16.5177C31.7307 16.825 31.6429 17.153 31.418 17.378L31.4259 17.37Z" fill="#E4E6EA"/>
<path d="M24.1347 24.6661H22.876V23.4066L28.8133 17.4653L30.072 18.7248L24.1347 24.6661Z" fill="#E4E6EA"/>
<path fill-rule="evenodd" clip-rule="evenodd" d="M29.0429 14.9935L21.5223 22.5191C21.3742 22.6687 21.2915 22.8709 21.2927 23.0816V25.458C21.2927 25.6681 21.3761 25.8697 21.5246 26.0182C21.673 26.1667 21.8745 26.2502 22.0844 26.2502H24.4593C24.6698 26.2514 24.8719 26.1687 25.0214 26.0205L32.542 18.495C33.1322 17.8646 33.3506 16.9715 33.118 16.1395C32.8857 15.3077 32.2359 14.6576 31.4045 14.4249C30.5733 14.1923 29.6808 14.4109 29.0508 15.0015L29.0429 14.9935ZM22.876 24.6661H24.1347L30.072 18.7248L28.8133 17.4653L22.876 23.4066V24.6661Z" fill="#E4E6EA"/>
<rect width="2.99558" height="4.99757" transform="translate(26.2893 17.7621) rotate(-45.8751)" fill="#545558"/>
</svg>
