<svg width="45" height="45" viewBox="0 0 45 45" fill="none" xmlns="http://www.w3.org/2000/svg">
<rect width="45" height="45" rx="22.5" fill="white" fill-opacity="0.05"/>
<g clip-path="url(#clip0_72_657)">
<path d="M30.6503 25.3998L30.3014 23.5064C30.2645 23.3103 30.1478 23.1301 29.9811 23.0143C28.5781 22.0851 27.5973 20.6038 27.2924 18.9637L27.0715 17.7598C26.6667 15.5757 24.9696 13.897 22.8296 13.5007L22.714 12.8767C22.6178 12.3752 22.3241 11.9171 21.9131 11.6322C21.4918 11.3312 20.9699 11.2213 20.4487 11.3128C19.3869 11.5191 18.6871 12.5395 18.8883 13.593L19.0058 14.2383C18.3883 14.6191 17.8591 15.125 17.4523 15.7292C16.6495 16.8916 16.3475 18.3115 16.6054 19.7113L16.821 20.8793C17.1329 22.5488 16.7399 24.2939 15.7399 25.6732C15.6256 25.8335 15.5758 26.0436 15.6111 26.2463L15.9697 28.128C16.0223 28.404 16.2247 28.6324 16.4909 28.7094C16.6075 28.744 16.7324 28.7736 16.8572 28.8032C17.7635 29.0181 18.8715 29.1143 20.1023 29.073L20.1089 29.0746C20.5878 30.0969 21.5038 30.8274 22.5809 31.0827C23.0669 31.1979 23.5894 31.2178 24.1187 31.1212C25.7947 30.8109 27.0137 29.4142 27.1263 27.7691C28.4648 27.3026 29.5761 26.7403 30.3727 26.1314C30.5948 25.9554 30.6962 25.6742 30.6503 25.3998ZM20.709 12.7899C20.7743 12.7777 20.8349 12.7851 20.8941 12.7992C20.9466 12.8116 20.9977 12.8307 21.0521 12.8643C21.1397 12.9337 21.213 13.0342 21.2391 13.1584L21.2901 13.441C21.2752 13.4445 21.2541 13.4463 21.2311 13.4548C21.1036 13.4662 20.9876 13.4872 20.865 13.5067C20.7637 13.5244 20.6674 13.55 20.5645 13.5742C20.5074 13.5814 20.4618 13.5985 20.403 13.6123L20.3537 13.3231C20.3081 13.0765 20.4689 12.8371 20.709 12.7899ZM23.8501 29.6493C23.0595 29.7948 22.2932 29.516 21.7951 28.954C21.8377 28.9502 21.8802 28.9465 21.9242 28.936C22.1809 28.9067 22.4392 28.8707 22.6973 28.8348C22.7121 28.8313 22.7251 28.8344 22.7465 28.8325C23.0553 28.7877 23.3592 28.735 23.6647 28.6757C23.9555 28.6198 24.2396 28.5622 24.5253 28.4981C24.5988 28.4809 24.6788 28.4652 24.7457 28.4463C24.9809 28.3911 25.2093 28.3342 25.4394 28.2709C25.4606 28.2689 25.4835 28.2606 25.5047 28.2586C25.2466 28.9675 24.6343 29.5023 23.8501 29.6493Z" fill="#E4E6EB"/>
</g>
<defs>
<clipPath id="clip0_72_657">
<rect width="27" height="27" fill="white" transform="translate(13 8) rotate(13.3371)"/>
</clipPath>
</defs>
</svg>
