<svg width="40" height="40" viewBox="0 0 40 40" fill="none" xmlns="http://www.w3.org/2000/svg">
<path d="M25.6256 18.0011L25.6258 18.0036C25.8048 20.6512 27.0753 23.1646 29.1123 24.8924C29.1145 24.8948 29.1175 24.8988 29.1202 24.9043C29.1229 24.9097 29.1236 24.9132 29.1237 24.9137L29.3028 27.6251C29.3028 27.634 29.3006 27.6405 29.2987 27.6442C29.2977 27.6462 29.2968 27.6472 29.2964 27.6476C29.2963 27.6478 29.2961 27.6479 29.2959 27.6482C28.1992 28.2972 26.6592 28.8713 24.7713 29.2916L24.0844 29.4445L24.0321 29.7245L22.6601 29.6901C22.6024 29.6887 22.5547 29.6916 22.5249 29.694C22.52 29.6944 22.5152 29.6948 22.5106 29.6952L22.4713 29.6942L22.3778 29.7086C22.0594 29.7574 21.7415 29.7983 21.4095 29.8365L21.3864 29.8392L21.3634 29.8428C21.3249 29.849 21.2969 29.8517 21.2516 29.8562C21.2154 29.8597 21.1681 29.8643 21.0957 29.8726C20.6979 29.9142 20.3005 29.9475 19.8895 29.9778L19.8874 29.978C19.4829 30.0086 19.0841 30.0312 18.6829 30.0434C18.6457 30.0405 18.5946 30.0382 18.5356 30.0407C18.169 30.0488 17.8175 30.0564 17.4713 30.0554L17.4071 30.0552L17.359 30.0609L17.348 30.0608L17.3112 30.0599L15.2179 30.0051L15.1048 29.9639L14.9625 29.952C13.2892 29.8133 11.838 29.5099 10.7033 29.0969C10.5287 29.0333 10.3875 28.9816 10.2621 28.9281C10.2619 28.9277 10.2617 28.9273 10.2616 28.9268C10.2613 28.926 10.2611 28.9253 10.2609 28.9247C10.2607 28.9238 10.2606 28.9231 10.2606 28.9225L10.2606 28.9223L10.0658 26.2235C10.0658 26.223 10.0659 26.2225 10.066 26.2219C10.0663 26.2198 10.0669 26.2173 10.0678 26.2146C10.0685 26.2126 10.0693 26.211 10.0698 26.21C11.901 24.2145 12.8419 21.5332 12.6575 18.8371C12.6575 18.8367 12.6575 18.8363 12.6575 18.836L12.5458 17.1546C12.5458 17.1544 12.5458 17.1543 12.5458 17.1541C12.4313 15.4162 12.9988 13.741 14.135 12.4475L14.1351 12.4475L14.1434 12.4379C14.704 11.7841 15.3921 11.2589 16.1677 10.888C17.7393 10.3764 19.4109 10.2516 21.0407 10.5239C23.5405 11.324 25.3319 13.5807 25.5124 16.2665C25.5124 16.2667 25.5124 16.267 25.5125 16.2673L25.6256 18.0011Z" stroke="#AFB2B7" stroke-width="2.13146"/>
</svg>
