<svg width="32" height="23" viewBox="0 0 32 23" fill="none" xmlns="http://www.w3.org/2000/svg">
<g clip-path="url(#clip0_72_520)">
<path d="M21.2716 3.83333H8.91129C6.92346 3.83333 5.33325 5.15808 5.33325 6.74794V17.0814C5.33325 18.7006 6.95954 19.996 8.91129 19.996H21.2354C23.2233 19.996 24.8135 18.6713 24.8135 17.0814V6.74794C24.8495 5.15808 23.2232 3.83333 21.2717 3.83333H21.2716ZM8.91129 5.01083H21.2354C22.4281 5.01083 23.3677 5.80576 23.3677 6.74773V10.8105H6.7789V6.74794C6.7789 5.80576 7.75478 5.01083 8.91116 5.01083H8.91129Z" fill="#FBFCFD"/>
<rect x="5" y="12" width="20" height="8" rx="2" fill="url(#paint0_linear_72_520)"/>
<rect width="20" height="2" transform="translate(5 12)" fill="#5DB9F4"/>
<rect width="18" height="5" transform="translate(6 6)" fill="#FDFDFE"/>
<path d="M14.7506 9.1521H21.8815C22.2943 9.1521 22.632 8.89294 22.632 8.57615C22.632 8.25934 22.2943 8.0002 21.8815 8.0002L14.7506 8C14.3377 8 14 8.25915 14 8.57595C14 8.89296 14.3377 9.1521 14.7506 9.1521Z" fill="#7E8186"/>
<rect x="8" y="7" width="3" height="3" rx="1.5" fill="url(#paint1_linear_72_520)"/>
<rect x="7" y="4" width="16" height="3" rx="1" fill="#FDFDFE"/>
<g clip-path="url(#clip1_72_520)">
<rect x="9" y="13" width="11" height="11" rx="5.5" fill="white"/>
<path d="M14.5009 24C13.7493 24 13.0385 23.8549 12.3687 23.5647C11.6989 23.2745 11.115 22.88 10.6171 22.3811C10.1192 21.8823 9.72521 21.2986 9.43513 20.6301C9.14504 19.9615 9 19.2518 9 18.5009C9 17.7493 9.1451 17.0385 9.43531 16.3687C9.72551 15.6989 10.12 15.115 10.6189 14.6171C11.1177 14.1192 11.7014 13.7252 12.3699 13.4351C13.0385 13.145 13.7482 13 14.4991 13C15.2507 13 15.9615 13.1451 16.6313 13.4353C17.3011 13.7255 17.885 14.12 18.3829 14.6189C18.8808 15.1177 19.2748 15.7014 19.5649 16.3699C19.855 17.0385 20 17.7482 20 18.4991C20 19.2507 19.8549 19.9615 19.5647 20.6313C19.2745 21.3011 18.88 21.885 18.3811 22.3829C17.8823 22.8808 17.2986 23.2748 16.6301 23.5649C15.9615 23.855 15.2518 24 14.5009 24ZM14.4965 23.1994C15.7845 23.1994 16.8903 22.7387 17.8139 21.8174C18.7376 20.8961 19.1994 19.7915 19.1994 18.5035C19.1994 17.2155 18.7376 16.1097 17.8142 15.1861C16.8908 14.2624 15.786 13.8006 14.5 13.8006C13.2097 13.8006 12.1039 14.2624 11.1826 15.1858C10.2613 16.1093 9.80063 17.214 9.80063 18.5C9.80063 19.7903 10.2613 20.8961 11.1826 21.8174C12.1039 22.7387 13.2085 23.1994 14.4965 23.1994Z" fill="#1B54A4"/>
<path d="M16.5019 20.3676L15.8757 20.9938L13.3999 18.41V15.2H14.2276V18.0773L16.5019 20.3676Z" fill="#6E6F72"/>
</g>
</g>
<defs>
<linearGradient id="paint0_linear_72_520" x1="15" y1="12" x2="15" y2="20" gradientUnits="userSpaceOnUse">
<stop stop-color="#76CAFF"/>
<stop offset="1" stop-color="#228ACB"/>
</linearGradient>
<linearGradient id="paint1_linear_72_520" x1="9.5" y1="7" x2="9.5" y2="10" gradientUnits="userSpaceOnUse">
<stop stop-color="#86C1FF"/>
<stop offset="1" stop-color="#4F8ED0"/>
</linearGradient>
<clipPath id="clip0_72_520">
<rect width="32" height="23" fill="white"/>
</clipPath>
<clipPath id="clip1_72_520">
<rect x="9" y="13" width="11" height="11" rx="5.5" fill="white"/>
</clipPath>
</defs>
</svg>
