<svg width="19" height="17" viewBox="0 0 19 17" fill="none" xmlns="http://www.w3.org/2000/svg">
<path d="M0.5 13.45C0.5 14.3451 0.855582 15.2035 1.48855 15.8365C2.12151 16.4694 2.97987 16.825 3.875 16.825H14.675C15.5701 16.825 16.4285 16.4694 17.0615 15.8365C17.6944 15.2035 18.05 14.3451 18.05 13.45V6.02501H0.5V13.45ZM6.575 9.27195C6.57681 8.79027 6.834 8.34562 7.25077 8.10397C7.66738 7.8623 8.181 7.85989 8.6 8.09749L12.137 10.1427C12.5533 10.3842 12.8096 10.8291 12.8096 11.3103C12.8096 11.7917 12.5533 12.2367 12.137 12.4782L8.6 14.5233C8.39509 14.6427 8.16214 14.7056 7.925 14.7056C7.68786 14.7056 7.45489 14.6427 7.25 14.5233C7.04358 14.4066 6.87212 14.2368 6.75339 14.0314C6.63482 13.826 6.57319 13.5928 6.575 13.3556V9.27195Z" fill="#B3B6BB"/>
<path d="M12.7302 4.67501L8.95015 0.625008H5.27954L9.05954 4.67501H12.7302Z" fill="#B3B6BB"/>
<path d="M3.57457 0.655441C2.73714 0.728665 1.95742 1.11244 1.38849 1.73124C0.819564 2.35019 0.5027 3.15942 0.5 4.00001V4.67501H7.33023L3.57457 0.655441Z" fill="#B3B6BB"/>
<path d="M14.6749 0.625008H10.6797L14.4597 4.67501H18.05V4.00001C18.05 3.10488 17.6944 2.24651 17.0614 1.61355C16.4285 0.980598 15.5701 0.625008 14.675 0.625008H14.6749Z" fill="#B3B6BB"/>
</svg>
