<svg width="24" height="24" viewBox="0 0 24 24" fill="none" xmlns="http://www.w3.org/2000/svg">
<path fill-rule="evenodd" clip-rule="evenodd" d="M12 8.5C10.067 8.5 8.5 10.067 8.5 12C8.5 13.933 10.067 15.5 12 15.5C13.933 15.5 15.5 13.933 15.5 12C15.5 10.067 13.933 8.5 12 8.5ZM10 12C10 10.8954 10.8954 10 12 10C13.1046 10 14 10.8954 14 12C14 13.1046 13.1046 14 12 14C10.8954 14 10 13.1046 10 12Z" fill="#cfcdcd"/>
<path fill-rule="evenodd" clip-rule="evenodd" d="M12 2C11.7801 2 11.5634 2.05338 11.3687 2.15556L3.80307 6.12519C3.3093 6.38426 3 6.89585 3 7.45345V16.5465C3 17.1042 3.30931 17.6157 3.80307 17.8748L11.3687 21.8444C11.5634 21.9466 11.7801 22 12 22C12.2199 22 12.4366 21.9466 12.6313 21.8444L20.1969 17.8748C20.6907 17.6157 21 17.1042 21 16.5465V7.45345C21 6.89585 20.6907 6.38426 20.1969 6.12519L12.6313 2.15556C12.4365 2.05338 12.2199 2 12 2ZM4.5 7.45345L12 3.51827L19.5 7.45345V16.5465L12 20.4817L4.5 16.5465L4.5 7.45345Z" fill="#cfcdcd"/>
</svg>
