<svg width="19" height="19" viewBox="0 0 19 19" fill="none" xmlns="http://www.w3.org/2000/svg">
<g clip-path="url(#clip0_72_515)">
<path d="M4.15209 2C2.96861 2 2.01226 3.07214 2.01226 4.40233C2.01226 5.72431 2.96861 6.80798 4.15209 6.80798C5.33557 6.80798 6.29488 5.72431 6.29488 4.40233C6.29488 3.07202 5.33554 2 4.15209 2ZM14.8426 2C13.6651 2 12.7086 3.07214 12.7086 4.40233C12.7086 5.72431 13.6637 6.80633 14.8426 6.80798C16.026 6.80798 16.9825 5.72431 16.9825 4.40233C16.9825 3.07202 16.0275 2 14.8426 2ZM9.50166 2.85512C8.91068 2.85512 8.37385 3.12556 7.98984 3.56348C7.59827 3.99628 7.35888 4.59906 7.35888 5.26077C7.35888 6.59107 8.32266 7.66489 9.50166 7.6631C10.6807 7.6631 11.6415 6.59095 11.6415 5.26077C11.6415 3.93723 10.6791 2.85512 9.50166 2.85512ZM3.59946 7.41197C1.62854 7.41197 0.0179686 9.20092 5.43594e-05 11.4203L0.0232742 11.4269C1.31234 11.9199 2.67342 12.1351 4.03552 12.1351L4.2422 11.5024C4.29437 9.91136 5.11734 8.53723 6.29488 7.83042C5.65925 7.17706 5.6345 7.41212 4.7072 7.41212L3.59946 7.41197ZM14.2929 7.41519C13.3655 7.41519 13.3457 7.61862 12.7086 8.27366C13.8876 8.98059 14.9124 10.544 14.9646 12.1349C16.3267 12.1349 17.6875 11.9229 18.9768 11.4298C18.9843 11.4279 18.9926 11.4234 19.0001 11.4199C18.9821 9.20056 17.3731 7.41341 15.4006 7.41494L14.2929 7.41519ZM8.94632 8.27366C6.96351 8.27366 5.34691 10.0785 5.34691 12.3113V12.7257C6.66578 12.9079 8.06065 13 9.50166 13C10.9412 13 12.3346 12.908 13.6534 12.7257V12.3113C13.6534 10.0784 12.0368 8.27366 10.054 8.27366H8.94632Z" fill="#F2F8FD"/>
</g>
<defs>
<clipPath id="clip0_72_515">
<rect width="19" height="19" fill="white"/>
</clipPath>
</defs>
</svg>
