<svg width="23" height="21" viewBox="0 0 23 21" fill="none" xmlns="http://www.w3.org/2000/svg">
<path d="M10 18.3894V1.4075C10 0.927453 9.65818 0.513583 9.18524 0.431226C6.03356 -0.117607 3.96303 -0.129592 0.810544 0.428918C0.339487 0.512373 0 0.925407 0 1.4038V18.0536C0 18.5345 0.343066 18.9489 0.816986 19.0301C3.70106 19.5242 5.44518 19.5122 7.98354 18.9643C8.2173 18.9139 8.46269 18.9597 8.65987 19.095C9.22777 19.4848 10 19.0782 10 18.3894Z" fill="#358CFC"/>
<path d="M12.7273 20V0.508062C16.7859 -0.173984 18.9734 -0.164716 22.7273 0.508062V19.0718C19.5543 19.4691 17.7752 19.5631 14.6023 19.0718L12.7273 20Z" fill="#358CFC"/>
</svg>
