<svg width="24" height="24" viewBox="0 0 24 24" fill="none" xmlns="http://www.w3.org/2000/svg">
<path fill-rule="evenodd" clip-rule="evenodd" d="M12.0001 2C9.51485 2 7.50013 4.01472 7.50013 6.5C7.50013 8.98528 9.51485 11 12.0001 11C14.4854 11 16.5001 8.98528 16.5001 6.5C16.5001 4.01472 14.4854 2 12.0001 2ZM9.00013 6.5C9.00013 4.84315 10.3433 3.5 12.0001 3.5C13.657 3.5 15.0001 4.84315 15.0001 6.5C15.0001 8.15685 13.657 9.5 12.0001 9.5C10.3433 9.5 9.00013 8.15685 9.00013 6.5Z" fill="#cfcdcd"/>
<path fill-rule="evenodd" clip-rule="evenodd" d="M12.0001 12.5C7.67403 12.5 4.1502 15.9336 4.00479 20.2246L3.97852 21H20.0217L19.9955 20.2246C19.8501 15.9336 16.3262 12.5 12.0001 12.5ZM12.0001 14C15.2499 14 17.9429 16.3851 18.4237 19.5H5.57653C6.05739 16.3851 8.75035 14 12.0001 14Z" fill="#cfcdcd"/>
</svg>
